<svg width="16" height="15" viewBox="0 0 16 15" fill="none" xmlns="http://www.w3.org/2000/svg">
<path d="M14.7982 13.202L10.9282 9.33195C11.6292 8.40295 12.0502 7.25095 12.0502 5.99995C12.0502 2.93995 9.5612 0.449951 6.5002 0.449951C3.4402 0.449951 0.950195 2.93995 0.950195 5.99995C0.950195 9.06095 3.4402 11.55 6.5002 11.55C7.7512 11.55 8.9032 11.129 9.8322 10.428L13.7022 14.298C13.8532 14.449 14.0522 14.526 14.2502 14.526C14.4482 14.526 14.6462 14.45 14.7982 14.298C15.1012 13.995 15.1012 13.505 14.7982 13.202ZM2.0502 5.99995C2.0502 3.54595 4.0472 1.54995 6.5002 1.54995C8.9542 1.54995 10.9502 3.54695 10.9502 5.99995C10.9502 8.45295 8.9542 10.45 6.5002 10.45C4.0462 10.45 2.0502 8.45395 2.0502 5.99995Z" fill="black" fill-opacity="0.8"/>
</svg>
