<svg width="12" height="12" viewBox="0 0 12 12" fill="none" xmlns="http://www.w3.org/2000/svg">
<mask id="mask0_1811_363" style="mask-type:alpha" maskUnits="userSpaceOnUse" x="0" y="0" width="12" height="12">
<g clip-path="url(#clip0_1811_363)">
<path d="M2.99994 9.15005V2.86205C2.98455 2.73987 2.99545 2.6158 3.03192 2.49817C3.06839 2.38054 3.12958 2.27206 3.2114 2.18002C3.29322 2.08797 3.39377 2.01448 3.50632 1.96447C3.61886 1.91446 3.74079 1.88909 3.86394 1.89005C4.10004 1.87998 4.33324 1.94511 4.52994 2.07605L9.64794 5.07605C10.1039 5.34005 10.3499 5.55605 10.3499 5.98205C10.3499 6.40805 10.1039 6.62405 9.64794 6.88805L4.52994 9.88805C4.33324 10.019 4.10004 10.0841 3.86394 10.0741C3.74473 10.0762 3.6264 10.0532 3.5166 10.0067C3.40681 9.96022 3.308 9.89119 3.22656 9.8041C3.14513 9.71701 3.08288 9.61379 3.04384 9.50113C3.0048 9.38846 2.98985 9.26886 2.99994 9.15005Z" fill="black"/>
</g>
</mask>
<g mask="url(#mask0_1811_363)">
<rect width="12" height="12" fill="black"/>
</g>
<defs>
<clipPath id="clip0_1811_363">
<rect width="12" height="12" fill="white"/>
</clipPath>
</defs>
</svg>
