<svg width="285" height="34" viewBox="0 0 285 34" fill="none" xmlns="http://www.w3.org/2000/svg">
<path d="M87.7994 9.20332C86.916 9.74366 86.1843 10.4991 85.6727 11.3989C85.1611 12.2987 84.8863 13.3134 84.8742 14.3482C84.8777 15.5128 85.2231 16.6508 85.8676 17.6213C86.512 18.5917 87.4273 19.352 88.5 19.8079C88.0771 21.1711 87.4511 22.463 86.6433 23.6401C85.4873 25.3026 84.2786 26.9649 82.4395 26.9649C80.6004 26.9649 80.1274 25.8975 78.0079 25.8975C75.9411 25.8975 75.2054 27 73.5238 27C71.8423 27 70.6688 25.46 69.32 23.5701C67.5384 20.9226 66.5592 17.8178 66.5 14.6281C66.5 9.37834 69.9157 6.59607 73.2786 6.59607C75.0653 6.59607 76.5542 7.76838 77.6752 7.76838C78.7436 7.76838 80.4077 6.52592 82.4395 6.52592C83.4841 6.499 84.5194 6.72911 85.4541 7.196C86.3887 7.6629 87.1942 8.35224 87.7994 9.20332ZM81.4762 4.30363C82.3718 3.25104 82.8788 1.92329 82.9125 0.542189C82.914 0.360119 82.8964 0.178393 82.8599 0C81.3214 0.150142 79.8988 0.882709 78.8837 2.04744C77.9795 3.05809 77.4534 4.35037 77.3949 5.70468C77.3955 5.86938 77.4131 6.03358 77.4474 6.19468C77.5687 6.21759 77.6918 6.22932 77.8153 6.22975C78.5243 6.17339 79.2145 5.97357 79.8438 5.64246C80.4732 5.31134 81.0285 4.85584 81.4762 4.30363Z" fill="black" fill-opacity="0.8"/>
<path d="M98.6642 10.1861V6.63636H115.389V10.1861H109.154V27H104.899V10.1861H98.6642ZM116.477 27V11.7273H120.584V14.392H120.743C121.021 13.4441 121.489 12.7282 122.145 12.2443C122.801 11.7538 123.557 11.5085 124.412 11.5085C124.624 11.5085 124.853 11.5218 125.098 11.5483C125.343 11.5748 125.559 11.6113 125.744 11.6577V15.4162C125.546 15.3565 125.271 15.3035 124.919 15.2571C124.568 15.2107 124.246 15.1875 123.955 15.1875C123.332 15.1875 122.775 15.3234 122.284 15.5952C121.8 15.8603 121.416 16.2315 121.131 16.7088C120.852 17.1861 120.713 17.7363 120.713 18.3594V27H116.477ZM131.852 27.2884C130.878 27.2884 130.009 27.1193 129.247 26.7812C128.485 26.4366 127.881 25.9295 127.437 25.2599C127 24.5838 126.781 23.742 126.781 22.7344C126.781 21.8859 126.937 21.1733 127.248 20.5966C127.56 20.0199 127.984 19.5559 128.521 19.2045C129.058 18.8532 129.668 18.5881 130.351 18.4091C131.04 18.2301 131.763 18.1042 132.518 18.0312C133.407 17.9384 134.122 17.8523 134.666 17.7727C135.21 17.6866 135.604 17.5606 135.849 17.3949C136.095 17.2292 136.217 16.9839 136.217 16.6591V16.5994C136.217 15.9697 136.018 15.4825 135.621 15.1378C135.229 14.7931 134.673 14.6207 133.95 14.6207C133.188 14.6207 132.581 14.7898 132.131 15.1278C131.68 15.4593 131.381 15.8769 131.236 16.3807L127.318 16.0625C127.517 15.1345 127.908 14.3324 128.491 13.6562C129.075 12.9735 129.827 12.4498 130.748 12.0852C131.676 11.714 132.75 11.5284 133.97 11.5284C134.818 11.5284 135.631 11.6278 136.406 11.8267C137.188 12.0256 137.881 12.3338 138.484 12.7514C139.094 13.169 139.575 13.706 139.926 14.3622C140.277 15.0118 140.453 15.7907 140.453 16.6989V27H136.436V24.8821H136.317C136.071 25.3594 135.743 25.7803 135.332 26.1449C134.921 26.5028 134.427 26.7846 133.851 26.9901C133.274 27.1889 132.608 27.2884 131.852 27.2884ZM133.065 24.3651C133.688 24.3651 134.238 24.2424 134.716 23.9972C135.193 23.7453 135.568 23.4072 135.839 22.983C136.111 22.5587 136.247 22.0781 136.247 21.5412V19.9205C136.114 20.0066 135.932 20.0862 135.7 20.1591C135.475 20.2254 135.22 20.2884 134.934 20.348C134.649 20.401 134.364 20.4508 134.079 20.4972C133.794 20.5369 133.536 20.5734 133.304 20.6065C132.807 20.6795 132.372 20.7955 132.001 20.9545C131.63 21.1136 131.342 21.3291 131.136 21.6009C130.931 21.866 130.828 22.1974 130.828 22.5952C130.828 23.1719 131.037 23.6127 131.454 23.9176C131.879 24.2159 132.416 24.3651 133.065 24.3651ZM149.367 27.2486C148.207 27.2486 147.156 26.9503 146.215 26.3537C145.28 25.7505 144.538 24.8655 143.988 23.6989C143.444 22.5256 143.172 21.0871 143.172 19.3835C143.172 17.6335 143.454 16.1785 144.018 15.0185C144.581 13.8518 145.33 12.9801 146.265 12.4034C147.206 11.8201 148.237 11.5284 149.357 11.5284C150.212 11.5284 150.925 11.6742 151.495 11.9659C152.072 12.2509 152.536 12.6089 152.887 13.0398C153.245 13.464 153.517 13.8816 153.702 14.2926H153.831V6.63636H158.057V27H153.881V24.554H153.702C153.503 24.9782 153.222 25.3991 152.857 25.8168C152.499 26.2277 152.032 26.5691 151.455 26.8409C150.885 27.1127 150.189 27.2486 149.367 27.2486ZM150.709 23.8778C151.392 23.8778 151.969 23.6922 152.439 23.321C152.917 22.9432 153.281 22.4162 153.533 21.7401C153.792 21.0639 153.921 20.2718 153.921 19.3636C153.921 18.4555 153.795 17.6667 153.543 16.9972C153.291 16.3277 152.927 15.8106 152.449 15.446C151.972 15.0814 151.392 14.8991 150.709 14.8991C150.013 14.8991 149.427 15.0881 148.949 15.4659C148.472 15.8437 148.111 16.3674 147.866 17.0369C147.62 17.7064 147.498 18.482 147.498 19.3636C147.498 20.2519 147.62 21.0374 147.866 21.7202C148.117 22.3963 148.479 22.9266 148.949 23.3111C149.427 23.6889 150.013 23.8778 150.709 23.8778ZM168.5 27.2983C166.929 27.2983 165.577 26.9801 164.443 26.3438C163.316 25.7008 162.448 24.7926 161.838 23.6193C161.228 22.4394 160.923 21.044 160.923 19.4332C160.923 17.8622 161.228 16.4834 161.838 15.2969C162.448 14.1103 163.307 13.1856 164.414 12.5227C165.527 11.8598 166.833 11.5284 168.331 11.5284C169.339 11.5284 170.277 11.6908 171.145 12.0156C172.02 12.3338 172.782 12.8144 173.432 13.4574C174.088 14.1004 174.599 14.9091 174.963 15.8835C175.328 16.8513 175.51 17.9848 175.51 19.2841V20.4474H162.614V17.8224H171.523C171.523 17.2126 171.39 16.6723 171.125 16.2017C170.86 15.7311 170.492 15.3632 170.021 15.098C169.557 14.8262 169.017 14.6903 168.401 14.6903C167.758 14.6903 167.188 14.8395 166.691 15.1378C166.2 15.4295 165.816 15.8239 165.537 16.321C165.259 16.8116 165.116 17.3584 165.11 17.9616V20.4574C165.11 21.2131 165.249 21.866 165.527 22.4162C165.812 22.9664 166.213 23.3906 166.73 23.6889C167.247 23.9872 167.86 24.1364 168.57 24.1364C169.04 24.1364 169.471 24.0701 169.862 23.9375C170.253 23.8049 170.588 23.6061 170.867 23.3409C171.145 23.0758 171.357 22.7509 171.503 22.3665L175.421 22.625C175.222 23.5663 174.814 24.3883 174.198 25.0909C173.588 25.7869 172.799 26.3305 171.831 26.7216C170.87 27.1061 169.76 27.2983 168.5 27.2983ZM189.14 6.63636V27H184.834V6.63636H189.14ZM196.838 18.1705V27H192.602V11.7273H196.639V14.4219H196.818C197.156 13.5336 197.723 12.831 198.519 12.3139C199.314 11.7902 200.279 11.5284 201.412 11.5284C202.473 11.5284 203.397 11.7604 204.186 12.2244C204.975 12.6884 205.588 13.3513 206.026 14.2131C206.463 15.0682 206.682 16.089 206.682 17.2756V27H202.446V18.0312C202.453 17.0966 202.214 16.3674 201.73 15.8438C201.246 15.3134 200.58 15.0483 199.732 15.0483C199.162 15.0483 198.658 15.1709 198.22 15.4162C197.789 15.6615 197.451 16.0194 197.206 16.4901C196.968 16.9541 196.845 17.5142 196.838 18.1705Z" fill="black"/>
</svg>
