<svg width="235" height="54" viewBox="0 0 235 54" fill="none" xmlns="http://www.w3.org/2000/svg">
<path d="M62.7994 9.20332C61.916 9.74366 61.1843 10.4991 60.6727 11.3989C60.1611 12.2987 59.8863 13.3134 59.8742 14.3482C59.8777 15.5128 60.2231 16.6508 60.8676 17.6213C61.512 18.5917 62.4273 19.352 63.5 19.8079C63.0771 21.1711 62.4511 22.463 61.6433 23.6401C60.4873 25.3026 59.2786 26.9649 57.4395 26.9649C55.6004 26.9649 55.1274 25.8975 53.0079 25.8975C50.9411 25.8975 50.2054 27 48.5238 27C46.8423 27 45.6688 25.46 44.32 23.5701C42.5384 20.9226 41.5592 17.8178 41.5 14.6281C41.5 9.37834 44.9157 6.59607 48.2786 6.59607C50.0653 6.59607 51.5542 7.76838 52.6752 7.76838C53.7436 7.76838 55.4077 6.52592 57.4395 6.52592C58.4841 6.499 59.5194 6.72911 60.4541 7.196C61.3887 7.6629 62.1942 8.35224 62.7994 9.20332ZM56.4762 4.30363C57.3718 3.25104 57.8788 1.92329 57.9125 0.542189C57.914 0.360119 57.8964 0.178393 57.8599 0C56.3214 0.150142 54.8988 0.882709 53.8837 2.04744C52.9795 3.05809 52.4534 4.35037 52.3949 5.70468C52.3955 5.86938 52.4131 6.03358 52.4474 6.19468C52.5687 6.21759 52.6918 6.22932 52.8153 6.22975C53.5243 6.17339 54.2145 5.97357 54.8438 5.64246C55.4732 5.31134 56.0285 4.85584 56.4762 4.30363Z" fill="black" fill-opacity="0.8"/>
<path d="M81.7853 27L75.9586 6.63636H80.6618L84.0325 20.7855H84.2015L87.9203 6.63636H91.9473L95.6561 20.8153H95.835L99.2058 6.63636H103.909L98.0822 27H93.8862L90.0083 13.6861H89.8493L85.9814 27H81.7853ZM107.672 27H103.059L110.089 6.63636H115.637L122.657 27H118.043L112.942 11.2898H112.783L107.672 27ZM107.384 18.9957H118.282V22.3565H107.384V18.9957ZM121.844 10.1861V6.63636H138.568V10.1861H132.334V27H128.078V10.1861H121.844ZM158.36 13.7656H154.005C153.926 13.2022 153.763 12.7017 153.518 12.2642C153.273 11.8201 152.958 11.4422 152.573 11.1307C152.189 10.8191 151.745 10.5805 151.241 10.4148C150.744 10.2491 150.204 10.1662 149.62 10.1662C148.566 10.1662 147.648 10.428 146.866 10.9517C146.084 11.4687 145.477 12.2244 145.046 13.2188C144.615 14.2064 144.4 15.4062 144.4 16.8182C144.4 18.2699 144.615 19.4896 145.046 20.4773C145.484 21.465 146.094 22.2107 146.876 22.7145C147.658 23.2183 148.563 23.4702 149.59 23.4702C150.167 23.4702 150.701 23.3939 151.191 23.2415C151.688 23.089 152.129 22.867 152.514 22.5753C152.898 22.277 153.216 21.9157 153.468 21.4915C153.727 21.0672 153.906 20.5833 154.005 20.0398L158.36 20.0597C158.248 20.9943 157.966 21.8958 157.515 22.7642C157.071 23.6259 156.471 24.3982 155.715 25.081C154.966 25.7571 154.071 26.294 153.031 26.6918C151.997 27.0829 150.827 27.2784 149.521 27.2784C147.704 27.2784 146.08 26.8674 144.649 26.0455C143.223 25.2235 142.097 24.0336 141.268 22.4759C140.446 20.9181 140.035 19.0322 140.035 16.8182C140.035 14.5975 140.453 12.7083 141.288 11.1506C142.123 9.5928 143.257 8.40625 144.688 7.59091C146.12 6.76894 147.731 6.35795 149.521 6.35795C150.701 6.35795 151.794 6.52367 152.802 6.85511C153.816 7.18655 154.714 7.67045 155.497 8.30682C156.279 8.93655 156.915 9.70881 157.406 10.6236C157.903 11.5384 158.221 12.5857 158.36 13.7656ZM161.448 27V6.63636H165.753V15.0384H174.493V6.63636H178.789V27H174.493V18.5881H165.753V27H161.448Z" fill="black"/>
<path d="M83.7251 44.2646C83.6881 43.8922 83.5296 43.6029 83.2496 43.3967C82.9695 43.1905 82.5894 43.0874 82.1093 43.0874C81.7831 43.0874 81.5076 43.1335 81.2829 43.2259C81.0583 43.3151 80.8859 43.4397 80.7659 43.5998C80.6489 43.7598 80.5905 43.9414 80.5905 44.1445C80.5843 44.3138 80.6197 44.4615 80.6966 44.5877C80.7767 44.7139 80.8859 44.8232 81.0244 44.9155C81.1629 45.0047 81.3229 45.0832 81.5045 45.1509C81.6861 45.2156 81.88 45.271 82.0862 45.3171L82.9356 45.5202C83.348 45.6126 83.7266 45.7357 84.0713 45.8896C84.416 46.0434 84.7145 46.2327 84.9669 46.4574C85.2193 46.6821 85.4147 46.9467 85.5532 47.2514C85.6948 47.5561 85.7671 47.9054 85.7702 48.2994C85.7671 48.878 85.6193 49.3796 85.327 49.8043C85.0377 50.226 84.6191 50.5537 84.0713 50.7876C83.5265 51.0185 82.8695 51.1339 82.1001 51.1339C81.3368 51.1339 80.672 51.0169 80.1057 50.783C79.5425 50.5491 79.1024 50.2029 78.7854 49.7443C78.4715 49.2827 78.3068 48.7118 78.2915 48.0316H80.2258C80.2473 48.3486 80.3381 48.6133 80.4981 48.8256C80.6613 49.0349 80.8782 49.1934 81.1491 49.3011C81.423 49.4058 81.7323 49.4581 82.077 49.4581C82.4155 49.4581 82.7094 49.4089 82.9587 49.3104C83.2111 49.2119 83.4065 49.0749 83.545 48.8995C83.6835 48.7241 83.7528 48.5225 83.7528 48.2947C83.7528 48.0824 83.6897 47.9039 83.5635 47.7592C83.4404 47.6146 83.2588 47.4915 83.0187 47.3899C82.7818 47.2884 82.4909 47.196 82.1462 47.1129L81.1167 46.8544C80.3196 46.6605 79.6903 46.3574 79.2286 45.945C78.767 45.5326 78.5377 44.977 78.5407 44.2784C78.5377 43.706 78.69 43.2058 78.9978 42.7781C79.3086 42.3503 79.7349 42.0163 80.2765 41.7763C80.8182 41.5362 81.4337 41.4162 82.1231 41.4162C82.8248 41.4162 83.4373 41.5362 83.9605 41.7763C84.4868 42.0163 84.8961 42.3503 85.1885 42.7781C85.4809 43.2058 85.6317 43.7013 85.6409 44.2646H83.7251ZM89.1147 51V41.5455H95.4854V43.1935H91.1136V45.4464H95.1577V47.0945H91.1136V49.3519H95.5039V51H89.1147ZM99.0747 51V41.5455H102.805C103.519 41.5455 104.128 41.6732 104.633 41.9286C105.141 42.181 105.527 42.5395 105.792 43.0043C106.059 43.4659 106.193 44.0091 106.193 44.6339C106.193 45.2617 106.058 45.8018 105.787 46.2543C105.516 46.7036 105.124 47.0483 104.61 47.2884C104.099 47.5284 103.48 47.6484 102.754 47.6484H100.256V46.0419H102.431C102.812 46.0419 103.129 45.9896 103.382 45.8849C103.634 45.7803 103.822 45.6233 103.945 45.4141C104.071 45.2048 104.134 44.9447 104.134 44.6339C104.134 44.32 104.071 44.0553 103.945 43.8398C103.822 43.6244 103.633 43.4613 103.377 43.3505C103.125 43.2366 102.806 43.1797 102.422 43.1797H101.074V51H99.0747ZM104.18 46.6974L106.53 51H104.324L102.025 46.6974H104.18ZM111.605 41.5455V51H109.606V41.5455H111.605ZM115.249 51V41.5455H121.62V43.1935H117.248V45.4464H121.292V47.0945H117.248V49.3519H121.639V51H115.249ZM130.338 44.2646C130.301 43.8922 130.143 43.6029 129.863 43.3967C129.583 43.1905 129.203 43.0874 128.723 43.0874C128.396 43.0874 128.121 43.1335 127.896 43.2259C127.672 43.3151 127.499 43.4397 127.379 43.5998C127.262 43.7598 127.204 43.9414 127.204 44.1445C127.198 44.3138 127.233 44.4615 127.31 44.5877C127.39 44.7139 127.499 44.8232 127.638 44.9155C127.776 45.0047 127.936 45.0832 128.118 45.1509C128.299 45.2156 128.493 45.271 128.699 45.3171L129.549 45.5202C129.961 45.6126 130.34 45.7357 130.685 45.8896C131.029 46.0434 131.328 46.2327 131.58 46.4574C131.833 46.6821 132.028 46.9467 132.166 47.2514C132.308 47.5561 132.38 47.9054 132.383 48.2994C132.38 48.878 132.233 49.3796 131.94 49.8043C131.651 50.226 131.232 50.5537 130.685 50.7876C130.14 51.0185 129.483 51.1339 128.713 51.1339C127.95 51.1339 127.285 51.0169 126.719 50.783C126.156 50.5491 125.716 50.2029 125.399 49.7443C125.085 49.2827 124.92 48.7118 124.905 48.0316H126.839C126.861 48.3486 126.951 48.6133 127.111 48.8256C127.275 49.0349 127.492 49.1934 127.762 49.3011C128.036 49.4058 128.346 49.4581 128.69 49.4581C129.029 49.4581 129.323 49.4089 129.572 49.3104C129.824 49.2119 130.02 49.0749 130.158 48.8995C130.297 48.7241 130.366 48.5225 130.366 48.2947C130.366 48.0824 130.303 47.9039 130.177 47.7592C130.054 47.6146 129.872 47.4915 129.632 47.3899C129.395 47.2884 129.104 47.196 128.759 47.1129L127.73 46.8544C126.933 46.6605 126.304 46.3574 125.842 45.945C125.38 45.5326 125.151 44.977 125.154 44.2784C125.151 43.706 125.303 43.2058 125.611 42.7781C125.922 42.3503 126.348 42.0163 126.89 41.7763C127.431 41.5362 128.047 41.4162 128.736 41.4162C129.438 41.4162 130.051 41.5362 130.574 41.7763C131.1 42.0163 131.509 42.3503 131.802 42.7781C132.094 43.2058 132.245 43.7013 132.254 44.2646H130.338ZM146.795 41.5455V51H144.796V43.4428H144.74L142.575 44.8001V43.0273L144.916 41.5455H146.795ZM152.749 51.2077C151.955 51.2047 151.271 51.0092 150.699 50.6214C150.13 50.2337 149.691 49.672 149.383 48.9364C149.079 48.2009 148.928 47.3161 148.931 46.282C148.931 45.2509 149.083 44.3723 149.388 43.646C149.696 42.9196 150.134 42.3672 150.704 41.9886C151.276 41.607 151.958 41.4162 152.749 41.4162C153.54 41.4162 154.22 41.607 154.789 41.9886C155.362 42.3703 155.802 42.9242 156.11 43.6506C156.417 44.3738 156.57 45.2509 156.567 46.282C156.567 47.3191 156.413 48.2055 156.105 48.9411C155.8 49.6766 155.363 50.2383 154.794 50.6261C154.224 51.0138 153.543 51.2077 152.749 51.2077ZM152.749 49.5504C153.29 49.5504 153.723 49.2781 154.046 48.7333C154.369 48.1886 154.529 47.3714 154.526 46.282C154.526 45.5649 154.452 44.9678 154.305 44.4908C154.16 44.0137 153.954 43.6552 153.686 43.4151C153.421 43.1751 153.109 43.055 152.749 43.055C152.21 43.055 151.779 43.3243 151.456 43.8629C151.133 44.4015 150.97 45.2079 150.967 46.282C150.967 47.0083 151.039 47.6146 151.184 48.1009C151.331 48.584 151.539 48.9472 151.807 49.1903C152.075 49.4304 152.389 49.5504 152.749 49.5504Z" fill="black"/>
</svg>
